<?xml version="1.0" encoding="UTF-8"?>
<svg xmlns="http://www.w3.org/2000/svg" xmlns:xlink="http://www.w3.org/1999/xlink" width="32px" height="32px" viewBox="0 0 32 32" version="1.1">
<defs>
<clipPath id="clip1">
  <path d="M 5 16 L 19 16 L 19 29 L 5 29 Z M 5 16 "/>
</clipPath>
<clipPath id="clip2">
  <path d="M 16.332031 28.691406 C 15.425781 28.609375 14.070312 28.667969 12.628906 27.773438 C 9.195312 25.65625 7.179688 20.675781 5.773438 17.628906 C 5.488281 17.007812 5.734375 16.898438 6.175781 17.019531 C 6.914062 17.21875 8.199219 18.023438 8.425781 18.179688 C 14.292969 22.152344 17.980469 25.96875 18.414062 27.300781 C 18.871094 28.710938 16.890625 28.746094 16.332031 28.691406 Z M 16.332031 28.691406 "/>
</clipPath>
<clipPath id="clip3">
  <path d="M 13 19 L 27 19 L 27 32 L 13 32 Z M 13 19 "/>
</clipPath>
<clipPath id="clip4">
  <path d="M 13.484375 29.648438 C 13.921875 28.316406 17.605469 24.5 23.46875 20.527344 C 23.699219 20.371094 24.988281 19.566406 25.722656 19.367188 C 26.164062 19.246094 26.414062 19.355469 26.125 19.976562 C 24.71875 23.023438 22.703125 28.003906 19.269531 30.121094 C 17.828125 31.011719 16.46875 30.953125 15.566406 31.039062 C 15.011719 31.089844 13.027344 31.054688 13.484375 29.648438 Z M 13.484375 29.648438 "/>
</clipPath>
</defs>
<g id="surface1">
<path style=" stroke:none;fill-rule:nonzero;fill:rgb(48.627451%,70.196078%,25.882353%);fill-opacity:1;" d="M 16.332031 28.691406 C 15.425781 28.609375 14.070312 28.667969 12.628906 27.773438 C 9.195312 25.65625 7.179688 20.675781 5.773438 17.628906 C 5.488281 17.007812 5.734375 16.898438 6.175781 17.019531 C 6.914062 17.21875 8.199219 18.023438 8.425781 18.179688 C 14.292969 22.152344 17.980469 25.96875 18.414062 27.300781 C 18.871094 28.710938 16.890625 28.746094 16.332031 28.691406 Z M 16.332031 28.691406 "/>
<g clip-path="url(#clip1)" clip-rule="nonzero">
<g clip-path="url(#clip2)" clip-rule="nonzero">
<path style=" stroke:none;fill-rule:nonzero;fill:rgb(74.117647%,81.176471%,27.45098%);fill-opacity:1;" d="M 19.304688 29.03125 C 19.304688 25.628906 17.574219 24.699219 17.574219 24.699219 C 12.003906 17.894531 5.449219 15.855469 5.449219 15.855469 L 5.386719 17.214844 C 6.816406 17.265625 14.230469 23.957031 16.257812 26.796875 C 17.046875 27.898438 17.195312 28.671875 17.195312 28.671875 Z M 19.304688 29.03125 "/>
</g>
</g>
<path style=" stroke:none;fill-rule:nonzero;fill:rgb(92.156863%,30.588235%,61.568627%);fill-opacity:1;" d="M 11.085938 6.160156 C 11.234375 5.175781 12.769531 1.542969 15.113281 1.390625 C 16.726562 1.289062 18.609375 2.761719 19.085938 5.03125 C 19.542969 7.226562 20.148438 9.507812 19.105469 11.570312 C 18.234375 13.285156 16.261719 15.308594 14.160156 14.054688 C 11.800781 12.648438 10.628906 9.09375 11.085938 6.160156 Z M 11.085938 6.160156 "/>
<path style=" stroke:none;fill-rule:nonzero;fill:rgb(95.294118%,52.941176%,67.058824%);fill-opacity:1;" d="M 12.628906 6.125 C 12.726562 5.503906 13.691406 3.226562 15.164062 3.128906 C 16.175781 3.0625 17.359375 3.984375 17.65625 5.417969 C 17.945312 6.796875 18.324219 8.234375 17.671875 9.527344 C 17.121094 10.609375 15.878906 11.878906 14.558594 11.09375 C 13.078125 10.203125 12.34375 7.96875 12.628906 6.125 Z M 12.628906 6.125 "/>
<path style=" stroke:none;fill-rule:nonzero;fill:rgb(48.627451%,70.196078%,25.882353%);fill-opacity:1;" d="M 17.054688 27.828125 C 17.023438 27.941406 16.984375 28.046875 16.941406 28.152344 C 16.863281 28.347656 16.789062 28.542969 16.703125 28.738281 C 16.636719 28.898438 16.566406 29.09375 16.382812 29.164062 C 16.15625 29.25 15.871094 29.210938 15.640625 29.140625 C 14.699219 28.863281 15.03125 27.980469 15.183594 27.292969 C 15.488281 25.90625 15.777344 24.503906 15.878906 23.089844 C 15.980469 21.628906 15.882812 20.164062 15.882812 18.703125 C 15.882812 18.675781 15.886719 18.078125 15.863281 18.078125 L 17.726562 18.078125 L 17.726562 18.765625 C 17.726562 19.824219 17.730469 20.882812 17.707031 21.941406 C 17.660156 23.898438 17.621094 25.925781 17.054688 27.828125 Z M 17.054688 27.828125 "/>
<path style=" stroke:none;fill-rule:nonzero;fill:rgb(48.627451%,70.196078%,25.882353%);fill-opacity:1;" d="M 13.484375 29.648438 C 13.921875 28.316406 17.605469 24.5 23.46875 20.527344 C 23.699219 20.371094 24.988281 19.566406 25.722656 19.367188 C 26.164062 19.246094 26.414062 19.355469 26.125 19.976562 C 24.71875 23.023438 22.703125 28.003906 19.269531 30.121094 C 17.828125 31.011719 16.46875 30.953125 15.566406 31.039062 C 15.011719 31.089844 13.027344 31.054688 13.484375 29.648438 Z M 13.484375 29.648438 "/>
<g clip-path="url(#clip3)" clip-rule="nonzero">
<g clip-path="url(#clip4)" clip-rule="nonzero">
<path style=" stroke:none;fill-rule:nonzero;fill:rgb(74.117647%,81.176471%,27.45098%);fill-opacity:1;" d="M 14.703125 31.015625 C 14.703125 31.015625 14.855469 30.246094 15.640625 29.140625 C 17.667969 26.300781 25.085938 19.613281 26.511719 19.558594 L 26.449219 18.199219 C 26.449219 18.199219 19.894531 20.238281 14.324219 27.046875 C 14.324219 27.046875 12.59375 27.972656 12.59375 31.375 Z M 14.703125 31.015625 "/>
</g>
</g>
<path style=" stroke:none;fill-rule:nonzero;fill:rgb(91.764706%,30.588235%,61.176471%);fill-opacity:1;" d="M 18.90625 3.097656 C 19.527344 2.460938 20.703125 1.402344 21.929688 2.636719 C 21.53125 2.027344 21.140625 1.621094 20.804688 1.378906 C 20.296875 1.007812 19.738281 0.945312 19.203125 1.300781 C 16.765625 2.9375 15.09375 7.398438 14.679688 11.378906 C 14.667969 11.5 14.65625 11.78125 14.65625 12.171875 C 14.851562 10.652344 15.203125 9.367188 15.316406 9.023438 C 16.125 6.648438 17.664062 4.371094 18.90625 3.097656 Z M 18.90625 3.097656 "/>
<path style=" stroke:none;fill-rule:nonzero;fill:rgb(95.294118%,52.941176%,67.058824%);fill-opacity:1;" d="M 24.210938 10.753906 C 23.816406 6.546875 22.851562 4.042969 21.925781 2.636719 C 20.703125 1.402344 19.523438 2.460938 18.902344 3.097656 C 17.703125 4.328125 16.226562 6.503906 15.398438 8.800781 C 14.019531 6.816406 12.183594 4.699219 10.578125 4.34375 C 9.988281 4.210938 9.289062 4.085938 8.601562 5.128906 C 8.351562 5.503906 8.089844 6.082031 7.894531 6.882812 C 7.746094 8.351562 7.757812 10.21875 8.066406 12.570312 C 8.351562 14.71875 8.988281 16.003906 9.210938 16.453125 C 10.804688 19.683594 14.109375 19.992188 14.703125 19.992188 C 17.5 20.328125 19.363281 19.476562 19.390625 19.460938 L 19.398438 19.460938 C 19.976562 19.328125 23.128906 18.296875 23.960938 14.789062 C 24.074219 14.308594 24.414062 12.914062 24.210938 10.753906 Z M 24.210938 10.753906 "/>
<path style=" stroke:none;fill-rule:nonzero;fill:rgb(91.764706%,30.588235%,61.176471%);fill-opacity:1;" d="M 10.578125 4.34375 C 13.261719 4.933594 16.589844 10.457031 17.355469 12.035156 C 17.421875 12.175781 17.601562 12.675781 17.777344 13.359375 C 17.570312 12.265625 17.308594 11.410156 17.222656 11.175781 C 16.453125 9.117188 13.585938 3.289062 10.851562 2.238281 C 10.25 2.011719 9.71875 2.195312 9.308594 2.671875 C 8.761719 3.300781 8.128906 4.609375 7.894531 6.882812 C 8.089844 6.082031 8.351562 5.503906 8.601562 5.128906 C 9.289062 4.085938 9.988281 4.214844 10.578125 4.34375 Z M 10.578125 4.34375 "/>
</g>
</svg>
